<?xml version="1.0" standalone="no"?><!DOCTYPE svg PUBLIC "-//W3C//DTD SVG 1.1//EN" "http://www.w3.org/Graphics/SVG/1.1/DTD/svg11.dtd"><svg t="1520596219102" class="icon" style="" viewBox="0 0 1024 1024" version="1.1" xmlns="http://www.w3.org/2000/svg" p-id="1002" xmlns:xlink="http://www.w3.org/1999/xlink" width="32" height="32"><defs><style type="text/css"></style></defs><path d="M527.36 225.28h-30.72c-8.192 0-15.36 7.168-15.36 15.36v133.12c0 8.192 7.168 15.36 15.36 15.36h30.72c8.192 0 15.36-7.168 15.36-15.36v-133.12c0-8.192-7.168-15.36-15.36-15.36z m256 256h-133.12c-8.192 0-15.36 7.168-15.36 15.36v30.72c0 8.192 7.168 15.36 15.36 15.36h133.12c8.192 0 15.36-7.168 15.36-15.36v-30.72c0-8.192-7.168-15.36-15.36-15.36z m-256 153.6h-30.72c-8.192 0-15.36 7.168-15.36 15.36v133.12c0 8.192 7.168 15.36 15.36 15.36h30.72c8.192 0 15.36-7.168 15.36-15.36v-133.12c0-8.192-7.168-15.36-15.36-15.36zM389.12 527.36v-30.72c0-8.192-7.168-15.36-15.36-15.36h-133.12c-8.192 0-15.36 7.168-15.36 15.36v30.72c0 8.192 7.168 15.36 15.36 15.36h133.12c8.192 0 15.36-7.168 15.36-15.36z m220.16-91.136c6.144 6.144 15.36 6.144 21.504 0l94.208-94.208c6.144-6.144 6.144-15.36 0-21.504l-21.504-21.504c-6.144-6.144-15.36-6.144-21.504 0l-94.208 94.208c-6.144 6.144-6.144 15.36 0 21.504l21.504 21.504z m22.528 151.552c-6.144-6.144-15.36-6.144-21.504 0l-21.504 21.504c-6.144 6.144-6.144 15.36 0 21.504l94.208 94.208c6.144 6.144 15.36 6.144 21.504 0l21.504-21.504c6.144-6.144 6.144-15.36 0-21.504l-94.208-94.208z m-217.088 0c-6.144-6.144-15.36-6.144-21.504 0l-94.208 94.208c-6.144 6.144-6.144 15.36 0 21.504l21.504 21.504c6.144 6.144 15.36 6.144 21.504 0l94.208-94.208c6.144-6.144 6.144-15.36 0-21.504l-21.504-21.504z m-72.704-289.792c-6.144-6.144-15.36-6.144-21.504 0l-21.504 21.504c-6.144 6.144-6.144 15.36 0 21.504l94.208 94.208c6.144 6.144 15.36 6.144 21.504 0l21.504-21.504c6.144-6.144 6.144-15.36 0-21.504l-94.208-94.208z" p-id="1003"></path></svg>